<?xml version="1.0" encoding="UTF-8"?>
<svg version="1.1" xmlns="http://www.w3.org/2000/svg" width="512" height="512">
<path d="M0 0 C3.80215034 0.95053758 4.92204151 1.48251595 7.7578125 3.87890625 C8.46043213 4.46615479 9.16305176 5.05340332 9.88696289 5.65844727 C10.99479126 6.60095337 10.99479126 6.60095337 12.125 7.5625 C13.66756562 8.85464807 15.21053167 10.14631828 16.75390625 11.4375 C17.86209717 12.36949219 17.86209717 12.36949219 18.99267578 13.3203125 C21.32208055 15.26951036 23.6828456 17.17504762 26.0625 19.0625 C31.01415896 22.99692511 35.91117863 26.99700859 40.81201172 30.99438477 C45.94946688 35.17364931 51.14014928 39.27965457 56.39550781 43.30981445 C59.87090059 46.00350635 62.95873006 48.84023902 66 52 C60.42852099 57.1440375 54.63714767 61.92059558 48.65673828 66.57275391 C43.9734355 70.22031426 39.35071709 73.93639647 34.75 77.6875 C29.73543471 81.77427592 24.7165057 85.85354675 19.65234375 89.87890625 C17.46822182 91.62556046 15.29663819 93.38548302 13.12890625 95.15234375 C12.44771729 95.70462646 11.76652832 96.25690918 11.06469727 96.82592773 C9.70660399 97.92708011 8.35152693 99.03196478 6.99975586 100.14086914 C2.22542593 104 2.22542593 104 0 104 C0 90.8 0 77.6 0 64 C-45.41258378 72.01398537 -86.37951472 87.23474658 -120.7265625 118.9140625 C-122.8389424 120.8522255 -124.99998072 122.71023271 -127.1875 124.5625 C-131.19595044 128.07686709 -134.61529602 131.88768211 -138 136 C-138.43328613 136.52094238 -138.86657227 137.04188477 -139.31298828 137.57861328 C-157.2552272 159.21752495 -171.37184144 183.12392095 -180 210 C-180.23122559 210.69432129 -180.46245117 211.38864258 -180.70068359 212.10400391 C-198.50823146 265.88153103 -191.47070629 324.75618492 -166.59765625 374.9921875 C-157.73347927 392.37643007 -146.04086686 408.46345173 -132.47460938 422.47412109 C-131.45365211 423.53057522 -130.43976855 424.59389417 -129.43164062 425.66259766 C-116.04490811 439.84501708 -100.85525618 451.23736321 -84 461 C-83.34628418 461.3810791 -82.69256836 461.7621582 -82.01904297 462.15478516 C-49.36296907 480.94463695 -14.09613904 487.56323662 23 490 C23 497.26 23 504.52 23 512 C-36.20474124 513.15333912 -91.97677689 491.38706544 -136 452 C-137.02174625 451.10111994 -138.04387024 450.20266904 -139.06640625 449.3046875 C-144.47633363 444.49095619 -149.35659831 439.5439402 -154 434 C-154.92371925 432.94740563 -155.84970098 431.89679449 -156.77734375 430.84765625 C-167.35858539 418.81936381 -176.01296506 405.86648105 -184 392 C-184.65742188 390.8759375 -185.31484375 389.751875 -185.9921875 388.59375 C-215.84355968 335.3647972 -221.09458298 270.38990928 -205.43359375 211.98046875 C-192.41041088 165.99547926 -164.84193167 122.53746786 -127 93 C-126.37319336 92.50209961 -125.74638672 92.00419922 -125.10058594 91.49121094 C-115.47180295 83.84793356 -105.75669115 76.95329386 -95 71 C-93.856521 70.35466309 -93.856521 70.35466309 -92.68994141 69.69628906 C-63.73827632 53.44737605 -33.68201703 45.59314834 -1 41 C-0.67 27.47 -0.34 13.94 0 0 Z " fill="#000000" transform="translate(330,0)"/>
</svg>
