<?xml version="1.0" encoding="UTF-8"?>
<svg version="1.1" xmlns="http://www.w3.org/2000/svg" width="565" height="222">
<path d="M0 0 C2.06802304 1.63834039 4.09665538 3.311511 6.125 5 C6.970625 5.70382813 7.81625 6.40765625 8.6875 7.1328125 C15.824594 13.28132253 21.93462978 20.1358027 27.125 28 C27.125 28.66 27.125 29.32 27.125 30 C28.77435547 30.05607422 28.77435547 30.05607422 30.45703125 30.11328125 C46.06862587 30.75572642 61.35826962 33.60221728 73.19921875 44.78125 C78.92248083 51.37519089 83.19493944 59.08145004 87.14404297 66.82836914 C93.39828057 79.08001278 101.05720945 88.09695411 114.16796875 93.1796875 C134.66325159 99.7631664 156.87575757 98.32348525 178.125 98 C178.93678711 97.98797546 179.74857422 97.97595093 180.58496094 97.96356201 C228.84218177 97.22744685 277.08355669 94.79377906 325 88.8125 C325.68134003 88.72800598 326.36268005 88.64351196 327.06466675 88.55645752 C333.55090619 88.342942 333.55090619 88.342942 339.125 86 C338.06925781 85.7369104 338.06925781 85.7369104 336.9921875 85.46850586 C295.0634193 74.90762895 295.0634193 74.90762895 287.125 63 C286.6712752 59.44582242 286.66119693 57.68642854 288.6875 54.6875 C295.18781876 50.18727932 303.17178999 52.48898849 310.4375 53.75 C311.71004639 53.9675293 312.98259277 54.18505859 314.29370117 54.40917969 C342.20168893 59.30699461 370.01445367 65.58221207 397.375 72.9375 C398.39166245 73.20620911 398.39166245 73.20620911 399.42886353 73.48034668 C414.45705378 77.4831618 414.45705378 77.4831618 418.5 82.8125 C419.69151496 86.98280234 419.83761101 90.59237332 417.859375 94.5 C409.9338444 105.92418825 393.37594941 113.70636008 381.81239319 120.97239685 C370.98565371 127.77824467 360.27768882 134.75348743 349.60693359 141.80102539 C346.73310488 143.69865609 343.85691669 145.59267063 340.98046875 147.48632812 C332.11115133 153.33311038 323.27086132 159.20199813 314.59912109 165.33911133 C310.32823626 168.20617562 307.38341412 169.76685206 302.125 169 C299.6875 166.875 299.6875 166.875 298.125 164 C298.125 158.2280903 300.87737103 154.3410512 304.72265625 150.3359375 C312.82911412 142.76131484 322.15078104 136.48886463 331.125 130 C332.3615332 129.10547119 332.3615332 129.10547119 333.62304688 128.19287109 C336.74172019 125.93822163 339.86051655 123.68380705 342.98608398 121.4387207 C343.67516846 120.94331787 344.36425293 120.44791504 345.07421875 119.9375 C345.66549561 119.51339844 346.25677246 119.08929688 346.8659668 118.65234375 C350.30957107 116.13355917 353.71547439 113.56464416 357.125 111 C355.96605225 111.16081055 354.80710449 111.32162109 353.61303711 111.48730469 C307.52384391 117.8583858 261.57584687 122.1904419 215.125 125 C214.1947702 125.05654755 213.26454041 125.11309509 212.30612183 125.1713562 C198.50072381 125.9861484 184.71343094 126.18628616 170.88549805 126.18530273 C167.43070408 126.18750433 163.97622299 126.20579511 160.52148438 126.22460938 C139.70859617 126.27816242 118.00081716 125.9475908 99.125 116 C98.33996094 115.60425781 97.55492187 115.20851562 96.74609375 114.80078125 C79.01338874 105.11578274 71.33874396 88.54557218 63.80053711 70.72729492 C60.3638527 62.81802844 56.50071415 56.48138968 48.42578125 52.84375 C44.0784402 51.24947892 39.6213307 50.09102142 35.125 49 C35.455 49.66 35.785 50.32 36.125 51 C38.85400919 64.58991443 35.22594028 76.70993184 27.75 88.09375 C21.63710983 96.01272136 11.67599974 100.49872923 2.125 102.6875 C-9.77654131 103.92724389 -19.14842685 101.4843821 -29.0625 94.875 C-33.62283194 90.77694828 -36.33963408 85.26805977 -37.32421875 79.2578125 C-37.60307868 72.46901557 -35.97521525 66.99374948 -32.875 61 C-32.57078125 60.39671875 -32.2665625 59.7934375 -31.953125 59.171875 C-24.71158107 47.2511796 -10.04957239 41.31254068 2.125 36 C3.46456303 35.34594105 4.80213411 34.68720306 6.125 34 C-15.09561134 10.24383767 -41.0309359 -4.89954514 -73.32861328 -6.88549805 C-79.3671471 -7.14586046 -84.96386032 -6.53860437 -90.921875 -5.47265625 C-93.66965696 -5.03286575 -96.10299064 -4.76253766 -98.875 -5 C-99.535 -5.66 -100.195 -6.32 -100.875 -7 C-100.875 -10.57008865 -99.99319563 -11.87222095 -97.5625 -14.5 C-70.24244999 -35.40347652 -24.23408788 -18.66790428 0 0 Z M-14.8125 67 C-17.05836725 70.266716 -18.04398203 72.02892232 -17.875 76 C-15.72114331 78.61955544 -13.91553406 80.47973297 -10.875 82 C-4.6175518 82.53167861 0.79707604 82.67880464 6.125 79 C11.48337043 74.40711106 15.00686053 69.44674661 15.9375 62.4375 C16.21016562 58.81848364 15.94497547 55.55322705 15.125 52 C4.27425783 51.14174921 -7.72389554 59.31066635 -14.8125 67 Z " fill="#000000" transform="translate(113.875,49)"/>
</svg>
