<?xml version="1.0" encoding="UTF-8"?>
<svg version="1.1" xmlns="http://www.w3.org/2000/svg" width="411" height="141">
<path d="M0 0 C3.92166325 0.52691951 5.26202274 2.10557433 7.625 5.1875 C8.676875 6.54681641 8.676875 6.54681641 9.75 7.93359375 C11.69666821 10.58660511 13.56442537 13.27972322 15.41796875 15.99804688 C33.63064213 42.43294658 61.88994057 58.34486281 92 68 C92.721875 68.23412598 93.44375 68.46825195 94.1875 68.70947266 C158.19804232 89.04615537 228.70805495 75.64184752 287.33447266 45.4609375 C288.89228121 44.64563583 290.44637076 43.82323781 292 43 C293.33199046 42.33065432 294.66505551 41.66343457 296 41 C295.09983154 40.98018066 294.19966309 40.96036133 293.2722168 40.93994141 C238.86697134 39.68221749 238.86697134 39.68221749 229.66796875 32.0703125 C228 30 228 30 228.25 26.75 C228.4975 25.8425 228.745 24.935 229 24 C230.68590842 23.51526322 232.37382545 23.03751074 234.0625 22.5625 C235.00222656 22.29566406 235.94195312 22.02882813 236.91015625 21.75390625 C243.82788661 20.06601503 250.65198304 19.76869231 257.7421875 19.53515625 C259.86988089 19.45806117 261.99756616 19.38074171 264.12524414 19.30322266 C265.22869171 19.26416809 266.33213928 19.22511353 267.46902466 19.18487549 C303.23085309 17.91839325 303.23085309 17.91839325 338.68579102 13.32080078 C352.83814341 10.83900294 352.83814341 10.83900294 358.375 13.8125 C361 16 361 16 363 19 C363.53266184 25.00533907 362.57688366 29.08235051 359.71484375 34.4140625 C359.18285622 35.43809677 359.18285622 35.43809677 358.64012146 36.4828186 C354.6139518 44.03574477 349.90316984 51.13367896 345.06420898 58.18408203 C343.55487648 60.38612233 342.06472653 62.60028179 340.57617188 64.81640625 C335.19559448 72.76185381 329.64872936 80.05971205 323 87 C321.82756792 88.30735243 320.65990728 89.61902267 319.5 90.9375 C318.94441406 91.5665625 318.38882812 92.195625 317.81640625 92.84375 C316.42558338 94.49479135 315.0887797 96.19147259 313.77734375 97.90625 C313.00519531 98.9065625 312.23304688 99.906875 311.4375 100.9375 C310.73496094 101.87464844 310.03242188 102.81179687 309.30859375 103.77734375 C306.51336128 106.46852358 304.83804586 106.87989788 301 107 C298.625 105.5 298.625 105.5 297 103 C296.51240078 97.57246789 297.62480416 93.68942637 299.9921875 88.89453125 C300.29818878 88.24804123 300.60419006 87.60155121 300.91946411 86.93547058 C301.8921151 84.88821335 302.8831441 82.85051048 303.875 80.8125 C304.533782 79.43352961 305.19134587 78.05397658 305.84765625 76.67382812 C308.18974548 71.761834 310.55156497 66.860091 313 62 C311.95328125 62.58265625 310.9065625 63.1653125 309.828125 63.765625 C280.54048444 79.77986956 248.66940485 91.97878128 216 99 C215.31373535 99.15017578 214.6274707 99.30035156 213.92041016 99.45507812 C209.3029362 100.44779607 204.66919304 101.28687047 200 102 C199.31776367 102.10441406 198.63552734 102.20882812 197.93261719 102.31640625 C176.29929651 105.45368451 153.60870785 105.24028978 132 102 C131.04689941 101.85997559 130.09379883 101.71995117 129.11181641 101.57568359 C86.10029667 94.96855431 39.90095133 77.16043124 12.16796875 42.015625 C4.21986373 30.95988252 -4.31115992 17.16257297 -2 3 C-1.34 2.01 -0.68 1.02 0 0 Z " fill="#0A0A0A" transform="translate(44,14)"/>
</svg>
