<?xml version="1.0" encoding="UTF-8"?>
<svg version="1.1" xmlns="http://www.w3.org/2000/svg" width="500" height="500">
<path d="M0 0 C10.57351787 6.40313764 18.47131471 15.36396339 21.64304829 27.48577499 C23.22998435 34.18940899 23.42649228 40.61323394 23.39872742 47.4776001 C23.40537424 48.78233929 23.41202107 50.08707849 23.41886932 51.43135524 C23.43675203 55.01860007 23.43635529 58.6056364 23.43273985 62.1929152 C23.43211241 66.07416455 23.44876948 69.95534608 23.46325684 73.83656311 C23.48598205 80.54967003 23.49791742 87.26272527 23.50238609 93.97586823 C23.50886274 103.68176136 23.53182667 113.38756131 23.55872939 123.09341678 C23.60194029 138.84302644 23.63193953 154.59263215 23.65356445 170.34228516 C23.67459124 185.6355991 23.70188116 200.92888086 23.73754883 216.22216797 C23.73974765 217.16589289 23.74194648 218.1096178 23.74421193 219.08194044 C23.75528201 223.81664366 23.76647474 228.55134658 23.77772844 233.28604937 C23.87083284 272.52400486 23.94246816 311.76197716 24 351 C24.54500656 350.37918045 25.09001312 349.7583609 25.65153503 349.11872864 C26.36876236 348.30586899 27.08598969 347.49300934 27.82495117 346.65551758 C28.53495773 345.84907303 29.24496429 345.04262848 29.97648621 344.21174622 C37.48874834 336.00067427 47.15078175 330.40102692 58.30859375 329.625 C72.48381939 329.05262496 83.28671209 332.27538163 94 342 C103.93705335 353.43171758 106.86954173 363.97925236 106.17480469 378.98144531 C104.99204699 392.63932326 95.53951392 401.75352022 86.34936523 410.98876953 C85.51251694 411.83715393 84.67566864 412.68553833 83.8134613 413.55963135 C81.54020683 415.86108409 79.26252309 418.15801008 76.98152423 420.45178461 C75.54991071 421.89154495 74.1193214 423.33231607 72.68898201 424.77334213 C68.19380913 429.30113625 63.69431054 433.82457079 59.18892998 438.34220803 C54.02382427 443.52155766 48.87387813 448.71538342 43.73645252 453.92218697 C39.73926119 457.97144881 35.72844254 462.00689059 31.70744663 466.0325135 C29.31745751 468.42587154 26.93332961 470.82439548 24.56350517 473.23773575 C1.68496722 496.47645264 1.68496722 496.47645264 -13.30078125 497.82421875 C-15.30518512 497.81514905 -17.30977049 497.76991147 -19.3125 497.6875 C-20.82166992 497.69040039 -20.82166992 497.69040039 -22.36132812 497.69335938 C-35.62115883 497.44317389 -44.50849643 490.83391139 -53.5234375 481.63671875 C-54.22844391 480.92651077 -54.93345032 480.2163028 -55.65982056 479.48457336 C-57.90305421 477.22361552 -60.13947131 474.95607437 -62.375 472.6875 C-64.6042176 470.43048968 -66.83494427 468.17502535 -69.0687561 465.92256165 C-70.4540896 464.52515989 -71.83674533 463.12509617 -73.21615601 461.72184753 C-77.09071113 457.80779839 -81.0772721 454.10323328 -85.26672363 450.52731323 C-87.75425971 448.33536806 -89.9259344 445.91575732 -92.125 443.4375 C-97.96912155 436.97103284 -104.09210412 430.78993977 -110.25 424.625 C-110.72149475 424.15109833 -111.1929895 423.67719666 -111.67877197 423.18893433 C-116.12262395 418.7256638 -120.56378093 414.30778579 -125.34375 410.203125 C-134.38059037 402.43988707 -142.09827091 393.03275858 -144 381 C-144.84112295 368.41073353 -144.04173962 356.87873945 -135.60546875 346.796875 C-135.07566406 346.20390625 -134.54585937 345.6109375 -134 345 C-133.52175781 344.40703125 -133.04351562 343.8140625 -132.55078125 343.203125 C-126.68558659 336.52537188 -116.83791633 331.13769096 -108 330 C-94.87850172 329.166889 -84.68352692 331.17750521 -74 339 C-72.19464682 340.70240192 -70.42395151 342.44221617 -68.6875 344.21484375 C-67.36298828 345.56050415 -67.36298828 345.56050415 -66.01171875 346.93334961 C-65.34785156 347.61534424 -64.68398437 348.29733887 -64 349 C-63.99910437 348.00874804 -63.99910437 348.00874804 -63.99819064 346.9974708 C-63.96226093 307.79111878 -63.90556709 268.58484564 -63.82207905 229.3785648 C-63.81206214 224.6661952 -63.80221792 219.95382526 -63.79248047 215.24145508 C-63.78956841 213.83429158 -63.78956841 213.83429158 -63.78659752 212.39870054 C-63.7556152 197.22866669 -63.7386074 182.05864794 -63.72680578 166.88858842 C-63.71437467 151.31125206 -63.68682912 135.73399474 -63.64538693 120.1567083 C-63.62030756 110.55233393 -63.60687865 100.94809071 -63.60857043 91.34368313 C-63.60860029 84.74873921 -63.59388819 78.15392842 -63.56783572 71.55903643 C-63.55325438 67.75971992 -63.54493078 63.96067642 -63.55419731 60.1613369 C-63.63507953 22.48759119 -63.63507953 22.48759119 -51 8 C-48.484375 5.8671875 -48.484375 5.8671875 -45.75 3.875 C-44.85796875 3.21242188 -43.9659375 2.54984375 -43.046875 1.8671875 C-30.85917113 -5.60168744 -12.87099679 -6.11442147 0 0 Z " fill="#060606" transform="translate(269,3)"/>
<path d="M0 0 C0.66 0.33 1.32 0.66 2 1 C-1.3 4.63 -4.6 8.26 -8 12 C-8.99 11.67 -9.98 11.34 -11 11 C-7.6381774 6.74828319 -4.25171681 3.3618226 0 0 Z " fill="#767676" transform="translate(307,340)"/>
<path d="M0 0 C1.98 0.495 1.98 0.495 4 1 C2.35 2.32 0.7 3.64 -1 5 C-0.67 3.35 -0.34 1.7 0 0 Z " fill="#4B4B4B" transform="translate(218,11)"/>
</svg>
