<?xml version="1.0" encoding="UTF-8"?>
<svg version="1.1" xmlns="http://www.w3.org/2000/svg" width="981" height="844">
<path d="M0 0 C3.41175662 1.44285743 5.24848725 3.18339229 7.625 6 C12.94832643 12.08633656 18.67745952 17.73345206 24.43994141 23.40234375 C27.90410308 26.8282564 31.286471 30.26322754 34.4609375 33.9609375 C38.55728639 38.72607805 43.02383194 43.09454549 47.5 47.5 C52.58960926 52.50920469 57.53004601 57.54022781 62.18164062 62.95898438 C65.76842688 66.98496894 69.65852822 70.71921498 73.5 74.5 C78.58960926 79.50920469 83.53004601 84.54022781 88.18164062 89.95898438 C91.76842688 93.98496894 95.65852822 97.71921498 99.5 101.5 C104.58960926 106.50920469 109.53004601 111.54022781 114.18164062 116.95898438 C117.76842688 120.98496894 121.65852822 124.71921498 125.5 128.5 C130.58960926 133.50920469 135.53004601 138.54022781 140.18164062 143.95898438 C143.76842688 147.98496894 147.65852822 151.71921498 151.5 155.5 C156.58960926 160.50920469 161.53004601 165.54022781 166.18164062 170.95898438 C169.76842688 174.98496894 173.65852822 178.71921498 177.5 182.5 C182.58960926 187.50920469 187.53004601 192.54022781 192.18164062 197.95898438 C195.76842688 201.98496894 199.65852822 205.71921498 203.5 209.5 C208.59984131 214.51927509 213.55183483 219.56045625 218.21289062 224.99023438 C221.63000884 228.8330919 225.33458665 232.39608687 229 236 C237.56563834 244.42191957 237.56563834 244.42191957 241.46875 248.96875 C245.56202757 253.73166514 250.02646937 258.09714126 254.5 262.5 C259.64279326 267.5615485 264.6678292 272.63856149 269.36914062 278.11523438 C271.99761136 281.1529281 274.75250942 284.07028425 277.5 287 C282.09416015 291.92075921 286.62721832 296.87987018 291 302 C289.66000502 305.006818 288.20154709 306.99762609 285.8125 309.25 C283.34321782 311.64829666 280.99872707 314.08114405 278.75 316.6875 C270.21218251 326.57386952 261.20281749 335.93497754 251.93917084 345.13599396 C249.99319018 347.06895052 248.05057955 349.00524205 246.10870361 350.94232178 C241.99198536 355.04774684 237.87129766 359.14917276 233.75 363.25 C228.95303442 368.02322791 224.15778476 372.79815514 219.36673737 377.57732391 C217.46618349 379.47146599 215.56261269 381.36253823 213.65887451 383.253479 C206.92619085 389.90790816 206.92619085 389.90790816 200.57714844 396.92285156 C195.55012512 402.82151691 189.92900488 408.17976665 184.43611145 413.63905334 C182.30568874 415.75658088 180.17852078 417.8773315 178.05212402 419.99890137 C172.77305066 425.2646852 167.48852263 430.52498392 162.2041626 435.78546143 C157.72826698 440.24155061 153.25447671 444.69973385 148.78340149 449.16065979 C146.69892822 451.23870342 144.61144079 453.31368535 142.52380371 455.3885498 C137.15157862 460.74021502 131.84517107 466.05968453 126.93347168 471.8416748 C122.3851842 476.91890638 117.45481412 481.65040532 112.62130737 486.45385742 C110.52448784 488.53777833 108.43092634 490.62492509 106.33813477 492.71289062 C101.14253807 497.89519991 95.94148576 503.07202261 90.74060059 508.24902344 C86.33516378 512.63465141 81.93183415 517.02237507 77.53121948 521.4128418 C75.47998551 523.45764763 73.42573709 525.49939064 71.37133789 527.54101562 C64.23793377 534.57607398 64.23793377 534.57607398 57.50878906 541.99121094 C52.52985068 547.84903781 46.9477831 553.16093321 41.49904633 558.57611847 C39.38653215 560.67575236 37.27726017 562.7785966 35.16876221 564.88226318 C30.69865721 569.34100564 26.22461387 573.79578309 21.75 578.25 C16.54807866 583.42829015 11.34780079 588.60820898 6.15171051 593.79235077 C4.07589661 595.86169385 1.99709014 597.92799816 -0.08184814 599.99420166 C-1.35321563 601.26193695 -2.62444312 602.52981267 -3.89550781 603.79785156 C-4.47217194 604.36934937 -5.04883606 604.94084717 -5.64297485 605.52966309 C-8.32737775 608.21371061 -10.83351698 610.87683591 -13 614 C-18.05518559 612.52752479 -20.79513053 609.51646732 -24.3125 605.8125 C-25.46551997 604.62702802 -26.62045905 603.44341949 -27.77734375 602.26171875 C-28.33147949 601.69501465 -28.88561523 601.12831055 -29.45654297 600.54443359 C-31.93284101 598.06656877 -34.5741542 595.80521631 -37.2421875 593.5390625 C-39.69137924 591.39465906 -41.93881556 589.07138779 -44.21875 586.75 C-46.08389674 584.91757513 -48.01927746 583.20646865 -50 581.5 C-53.22675563 578.72002592 -56.22813145 575.79509902 -59.2109375 572.7578125 C-61.74812236 570.26494528 -64.43941096 567.96588705 -67.1328125 565.64453125 C-69.53512038 563.52869105 -71.77208834 561.2975339 -74 559 C-72.5158627 555.51345524 -70.53785948 553.35808928 -67.8125 550.75 C-65.13786148 548.18309648 -62.62582335 545.57595253 -60.2409668 542.74316406 C-54.99494479 536.72791254 -49.27956984 531.16922209 -43.62130737 525.54614258 C-41.52448784 523.46222167 -39.43092634 521.37507491 -37.33813477 519.28710938 C-32.14253807 514.10480009 -26.94148576 508.92797739 -21.74060059 503.75097656 C-17.33516378 499.36534859 -12.93183415 494.97762493 -8.53121948 490.5871582 C-6.47998551 488.54235237 -4.42573709 486.50060936 -2.37133789 484.45898438 C4.76612876 477.41924626 4.76612876 477.41924626 11.5 470 C16.43930497 464.18887096 21.97318391 458.91803995 27.37869263 453.54614258 C29.47551216 451.46222167 31.56907366 449.37507491 33.66186523 447.28710938 C38.85746193 442.10480009 44.05851424 436.92797739 49.25939941 431.75097656 C53.66483622 427.36534859 58.06816585 422.97762493 62.46878052 418.5871582 C64.52001449 416.54235237 66.57426291 414.50060936 68.62866211 412.45898438 C74.0295171 407.07914414 79.37309481 401.72846668 84.3117981 395.9152832 C88.10291975 391.61421495 92.24490331 387.63479823 96.30859375 383.59375 C97.2853001 382.61891355 98.26178234 381.64385251 99.23805237 380.6685791 C101.78227461 378.12813699 104.32948736 375.59071491 106.87738037 373.05395508 C109.48715882 370.45448873 112.09403482 367.85211506 114.70117188 365.25 C119.79797872 360.16385082 124.89795508 355.0808953 130 350 C84.02711093 327.01355547 -65.31965536 358.73692383 -152.9375 384.4375 C-220.58762048 407.06300505 -285.12607237 440.35349049 -343 482 C-344.21647217 482.87422607 -344.21647217 482.87422607 -345.45751953 483.76611328 C-356.00994383 491.37738806 -366.26057597 499.28206206 -376.28076172 507.58056641 C-378.69305718 509.57220029 -381.12995367 511.53318419 -383.5625 513.5 C-394.44804543 522.42712646 -404.97863407 531.75164374 -415.25634766 541.36962891 C-417.16064567 543.15020887 -419.07049778 544.92472619 -420.98046875 546.69921875 C-430.73297537 555.77782786 -440.41243497 564.83992673 -449.1550293 574.90991211 C-452.14145488 578.2931051 -455.26463034 581.54370949 -458.375 584.8125 C-463.41895169 590.15362718 -468.26432696 595.56649635 -472.84375 601.31640625 C-474.80801796 603.76106583 -476.82761653 606.14771275 -478.8737793 608.52392578 C-485.36464097 616.07529545 -491.4143774 623.93160092 -497.40332031 631.88427734 C-498.90419486 633.87305087 -500.41522729 635.85359457 -501.9296875 637.83203125 C-515.67518758 655.86250913 -528.329794 674.56657 -540 694 C-540.52658203 694.86915039 -541.05316406 695.73830078 -541.59570312 696.63378906 C-550.58288456 711.47956447 -558.94453418 726.63019059 -567 742 C-567.48178711 742.9168457 -567.96357422 743.83369141 -568.45996094 744.77832031 C-585.09772498 776.64867174 -597.92572722 810.19203621 -610 844 C-636.4 844 -662.8 844 -690 844 C-689.31787361 838.54298887 -688.68213921 834.36788893 -687.1015625 829.2734375 C-686.91113876 828.65619308 -686.72071503 828.03894867 -686.52452087 827.40299988 C-685.89989107 825.3908749 -685.26366459 823.38271135 -684.625 821.375 C-684.40480194 820.67736542 -684.18460388 819.97973083 -683.95773315 819.26095581 C-676.69632085 796.30397948 -668.35836717 773.86062355 -658.34423828 751.94873047 C-657.04519038 749.09912993 -655.76814335 746.24064269 -654.49609375 743.37890625 C-639.21553796 709.23503217 -621.83112663 676.38874069 -601.77832031 644.81005859 C-600.10707143 642.16919168 -598.45246556 639.51883831 -596.8046875 636.86328125 C-577.37411387 605.61753879 -554.27493797 576.67747103 -530.44140625 548.69580078 C-528.99800384 546.99765154 -527.56118577 545.29409807 -526.125 543.58984375 C-520.22110376 536.61152521 -514.13581666 529.8452974 -507.86669922 523.19287109 C-504.94936907 520.09641378 -502.07430437 516.98752187 -499.3125 513.75 C-493.07414175 506.51917566 -486.15321242 499.87005296 -478.89453125 493.67578125 C-476.84198069 491.86022622 -474.92253994 489.95240464 -473 488 C-469.91416001 484.87245947 -466.718757 481.96617743 -463.38671875 479.10546875 C-460.88026446 476.89437405 -458.44315697 474.62094262 -456.00708008 472.33300781 C-450.50077488 467.16433598 -444.93724785 462.16517416 -439.0390625 457.44140625 C-436.6612984 455.53124872 -434.30610726 453.60193615 -431.9609375 451.65234375 C-424.34947507 445.32641074 -416.70816801 439.10295399 -408.71582031 433.25927734 C-406.71765168 431.79277851 -404.72995801 430.31259262 -402.7421875 428.83203125 C-377.32961712 409.94247359 -351.21794682 392.69298443 -323.8339386 376.82237244 C-319.67711843 374.40811055 -315.5827386 371.91175435 -311.5 369.375 C-277.78245196 349.10549135 -241.15334104 333.64892939 -204.4005127 319.89910889 C-202.14908884 319.05584103 -199.8999865 318.20666895 -197.65136719 317.35595703 C-117.72808795 287.23079279 -31.13167493 271.12305293 143.2722168 270.83227539 C146.18785663 271.01155084 149.07958861 271.02768035 152 271 C151.00987915 270.01773438 151.00987915 270.01773438 149.99975586 269.015625 C147.51703534 266.55009874 145.03669808 264.08222166 142.55786133 261.61279297 C141.49107703 260.55099139 140.42339147 259.49009442 139.35473633 258.43017578 C133.96632483 253.08466966 128.66591713 247.72834747 123.73266602 241.953125 C120.18213205 237.95083224 116.31156613 234.25135181 112.5 230.5 C107.41039074 225.49079531 102.46995399 220.45977219 97.81835938 215.04101562 C94.23157312 211.01503106 90.34147178 207.28078502 86.5 203.5 C81.41039074 198.49079531 76.46995399 193.45977219 71.81835938 188.04101562 C68.23157312 184.01503106 64.34147178 180.28078502 60.5 176.5 C55.40015869 171.48072491 50.44816517 166.43954375 45.78710938 161.00976562 C42.36999116 157.1669081 38.66541335 153.60391313 35 150 C26.43436166 141.57808043 26.43436166 141.57808043 22.53125 137.03125 C18.43797243 132.26833486 13.97353063 127.90285874 9.5 123.5 C4.41039074 118.49079531 -0.53004601 113.45977219 -5.18164062 108.04101562 C-8.76842688 104.01503106 -12.65852822 100.28078502 -16.5 96.5 C-25.59742881 87.54629044 -25.59742881 87.54629044 -29.48828125 83.0078125 C-34.3878856 77.29801493 -39.85255847 72.13825335 -45.23632812 66.890625 C-49.35988289 62.82266137 -53.05965072 59.00588391 -56 54 C-43.3904713 41.21747472 -43.3904713 41.21747472 -39.125 37.625 C-34.29790717 33.53737671 -29.94239295 28.96618926 -25.49536133 24.47583008 C-21.80181957 20.76011875 -18.05876183 17.20513746 -14.05078125 13.828125 C-9.1477344 9.45740895 -4.60819745 4.67732041 0 0 Z " fill="#040404" transform="translate(690,0)"/>
<path d="M0 0 C0.66 0.33 1.32 0.66 2 1 C-10.21 13.21 -22.42 25.42 -35 38 C-35.66 37.67 -36.32 37.34 -37 37 C-28.3523749 27.53297218 -19.74591694 18.13042881 -9.99609375 9.7734375 C-6.50832134 6.67471211 -3.25855627 3.33655363 0 0 Z " fill="#6D6D6D" transform="translate(221,484)"/>
</svg>
