<?xml version="1.0" encoding="iso-8859-1"?>
<!-- Uploaded to: SVG Repo, www.svgrepo.com, Generator: SVG Repo Mixer Tools -->
<!DOCTYPE svg PUBLIC "-//W3C//DTD SVG 1.1//EN" "http://www.w3.org/Graphics/SVG/1.1/DTD/svg11.dtd">
<svg fill="#000000" version="1.1" id="Capa_1" xmlns="http://www.w3.org/2000/svg" xmlns:xlink="http://www.w3.org/1999/xlink" 
	 width="800px" height="800px" viewBox="0 0 72.41 72.41" xml:space="preserve"
	>
<g>
	<path d="M55.341,31.639c-0.456-0.455-1.197-0.455-1.651,0l-4.179,4.179c-0.044-9.368-1.647-18.182-4.547-24.855
		C41.89,3.894,37.687,0,33.125,0c-9.199,0-16.4,15.905-16.4,36.205c0,20.302,7.204,36.205,16.4,36.205
		c0.644,0,1.167-0.524,1.167-1.168c0-0.643-0.523-1.168-1.167-1.168c-7.625,0-14.064-15.511-14.064-33.869
		c0-18.357,6.441-33.869,14.064-33.869c3.526,0,7.056,3.485,9.698,9.56c2.776,6.38,4.313,14.854,4.353,23.903l-4.156-4.16
		c-0.454-0.455-1.195-0.455-1.651,0c-0.454,0.456-0.454,1.196,0,1.651l6.984,6.989l6.989-6.989
		C55.799,32.835,55.799,32.095,55.341,31.639z"/>
</g>
</svg>